# xmcd
#
# Track frame offsets: 
#        150
#        24467
#        46780
#        69382
#        91707
#        112905
#        147405
#        172690
#        199687
#        219187
#
# Disc length: 3264 seconds
#
# Revision: 1
# Processed by: cddbd v1.5.2PL0 Copyright (c) Steve Scherf et al.
# Submitted via: ExactAudioCopy v1.0b1
#
DISCID=750cbe0a
DTITLE=Various Artist - 爵士夜未眠
DYEAR=1900
DGENRE=Jazz
TTITLE0=城市的夜 LOW BLOW
TTITLE1=沒有情人的國定假日 HOLIDAY(FOR PETE AND SLADYS)
TTITLE2=高跟．舞鞋 BACK OUT
TTITLE3=街道像一片海 JAZZ MOVE
TTITLE4=瑪格麗特 LIGHTS OUT
TTITLE5=來跳舞 DARIUS DANCE
TTITLE6=妳看到自己的倒影 OLD FACE IN WINDOWS
TTITLE7=今晚．我愛你 I STILL LOVE YOU
TTITLE8=缷妝 THERE AND BACK AGAIN
TTITLE9=AM5:30，車窗外的藍天 RIDE HOME
EXTD=
EXTT0=
EXTT1=
EXTT2=
EXTT3=
EXTT4=
EXTT5=
EXTT6=
EXTT7=
EXTT8=
EXTT9=
PLAYORDER=
